HIERARCHY
ROOT Hips
{
   OFFSET 0.00000 0.00000 0.00000
   CHANNELS 6 Xposition Yposition Zposition Zrotation Xrotation Yrotation
   JOINT Spine
   {
      OFFSET 0.000000 13.079551 0.000000
      CHANNELS 3 Zrotation Xrotation Yrotation
      JOINT Spine1
      {
         OFFSET -0.000000 28.223142 0.140426
         CHANNELS 3 Zrotation Xrotation Yrotation
         JOINT HEad
         {
            OFFSET 0.000000 9.607577 0.012474
            CHANNELS 3 Zrotation Xrotation Yrotation
            End Site
            {
               OFFSET -0.319000 14.051621 2.765345
            }
         }
         JOINT LeftShoulder1
         {
            OFFSET 9.889000 -0.398475 -0.242000
            CHANNELS 3 Zrotation Xrotation Yrotation
            JOINT LeftArm
            {
               OFFSET 11.310971 -0.003718 0.354332
               CHANNELS 3 Zrotation Xrotation Yrotation
               JOINT LeftForeArm
               {
                  OFFSET 36.043591 0.109054 -1.566774
                  CHANNELS 3 Zrotation Xrotation Yrotation
                  JOINT LeftHand
                  {
                     OFFSET 30.320732 0.093896 1.124376
                     CHANNELS 3 Zrotation Xrotation Yrotation
                     End Site
                     {
                        OFFSET 18.418731 -0.660000 1.653201
                     }
                  }
               }
            }
         }
         JOINT RightShoulder
         {
            OFFSET -9.889000 -0.398475 -0.242000
            CHANNELS 3 Zrotation Xrotation Yrotation
            JOINT RightArm
            {
               OFFSET -11.310971 -0.003718 0.354332
               CHANNELS 3 Zrotation Xrotation Yrotation
               JOINT RightForeArm
               {
                  OFFSET -36.186809 0.109054 -1.566774
                  CHANNELS 3 Zrotation Xrotation Yrotation
                  JOINT RightHand
                  {
                     OFFSET -30.241313 0.093896 1.124376
                     CHANNELS 3 Zrotation Xrotation Yrotation
                     End Site
                     {
                        OFFSET -18.294322 -0.660000 1.653201
                     }
                  }
               }
            }
         }
      }
   }
   JOINT LeftUpLeg
   {
      OFFSET 9.840380 -9.533777 0.111815
      CHANNELS 3 Zrotation Xrotation Yrotation
      JOINT LeftLeg
      {
         OFFSET 0.000000 -48.864969 1.509970
         CHANNELS 3 Zrotation Xrotation Yrotation
         JOINT LeftFoot
         {
            OFFSET -0.278905 -46.301641 -1.606649
            CHANNELS 3 Zrotation Xrotation Yrotation
            JOINT LeftToes
            {
               OFFSET -0.044000 -4.856599 9.349010
               CHANNELS 3 Zrotation Xrotation Yrotation
               End Site
               {
                  OFFSET 0.088000 -0.052195 10.757769
               }
            }
         }
      }
   }
   JOINT RightUpLeg
   {
      OFFSET -9.840380 -9.533777 0.111815
      CHANNELS 3 Zrotation Xrotation Yrotation
      JOINT RightLeg
      {
         OFFSET 0.000000 -48.864969 1.509970
         CHANNELS 3 Zrotation Xrotation Yrotation
         JOINT RightFoot
         {
            OFFSET 0.278905 -46.301641 -1.606649
            CHANNELS 3 Zrotation Xrotation Yrotation
            JOINT RightToes
            {
               OFFSET 0.044000 -4.856599 9.349010
               CHANNELS 3 Zrotation Xrotation Yrotation
               End Site
               {
                  OFFSET -0.088000 -0.151195 10.757769
               }
            }
         }
      }
   }
}
MOTION
Frames: 10
Frame Time: 0.016670
3.219868 51.188111 -136.476400 -6.553557 24.901184 -22.659352 2.186468 31.960241 172.577119 38.270223 -27.579595 -128.872761 -23.828524 -5.165565 74.133132 7.274209 218.937971 52.649082 -73.654199 270.275476 -26.678340 -32.798118 167.468534 -44.721463 -48.125342 -58.577990 -91.820446 200.345513 351.492026 144.775545 46.107660 148.319702 395.577782 -70.514525 4.125593 48.902116 -44.493406 -19.667847 11.572074 78.397833 -40.034140 55.514801 24.356537 32.717446 60.504152 -28.637870 15.143318 24.361490 24.826085 -50.354668 -53.740796 76.489820 -76.579316 140.101988 -112.584310 169.308928 110.488924 -112.139132 150.309009 25.388993 39.212901 -39.612399 -72.202906
1.311995 52.420787 -134.317720 -7.834720 21.914501 -22.946120 8.886397 25.874830 170.623767 40.026678 -27.923736 -126.896213 -27.008060 -6.263682 73.562353 7.235982 226.299822 56.652038 -72.570084 279.774684 -24.759221 -27.445003 162.423073 -46.807662 -47.848801 -47.905147 -91.830848 205.502893 361.185048 147.611535 40.863362 160.915418 405.841863 -66.965278 4.303891 47.960004 -42.759146 -20.371082 14.490962 77.903778 -33.721341 47.850611 16.030471 36.199890 72.730682 -32.326319 21.005613 17.925505 15.020260 -54.048315 -64.499327 64.007622 -72.853502 126.776220 -113.982163 171.648009 116.527726 -107.466763 150.532301 27.638601 38.076717 -46.434560 -74.864440
-0.736846 53.734779 -132.039135 -7.917130 19.327453 -22.720138 15.162771 19.287882 167.750389 42.589450 -26.071734 -125.637915 -27.412742 -4.614820 72.093186 8.629671 230.874355 63.639987 -67.353861 288.081779 -22.644541 -25.376362 156.384708 -48.852416 -49.888593 -64.214426 -84.683513 209.564520 368.564657 152.764954 38.006864 172.453739 415.079830 -65.117173 5.579640 47.379533 -40.090956 -15.530633 16.163018 75.875793 -28.323015 38.361556 8.063520 37.388862 82.605920 -36.094637 28.343106 11.811324 32.081173 -48.440091 -48.596830 55.026634 -70.593420 112.660357 -113.168906 177.206458 127.264729 -103.405280 147.696052 31.267100 30.729854 -54.516910 -76.033393
-3.211048 55.711335 -129.369791 -9.119898 19.867376 -23.258307 18.510287 14.216770 168.045152 37.192149 -23.548909 -125.988071 -27.583476 -1.143286 70.078998 9.433817 236.335173 66.420338 -63.936089 302.086727 -27.525596 -23.160569 145.224780 -46.743643 -45.292330 -46.520808 -91.849385 210.206312 379.514325 159.058344 35.784396 184.990196 430.358144 -61.988816 4.746054 42.931192 -36.043516 -12.829170 16.678424 76.093478 -22.644447 30.025156 2.269744 36.434432 89.498803 -38.540825 35.556114 7.611417 23.097261 -53.576704 -57.801166 49.931760 -65.856718 100.032990 -113.279097 176.787480 136.074266 -103.074822 145.492906 30.262717 24.029587 -61.904866 -80.669787
-5.753632 57.754072 -126.654575 -9.894455 18.399941 -23.753195 22.240674 13.946524 167.727398 36.936823 -17.428870 -125.131497 -28.537468 6.696230 67.451793 9.493380 242.731509 70.789255 -57.975902 312.422661 -25.752755 -24.460466 136.492287 -48.450227 -59.857039 -60.347877 -88.537249 211.097583 387.073131 164.773833 33.632794 193.377641 440.995808 -59.413691 0.882851 40.152165 -34.053742 -10.236830 19.339544 74.019826 -16.862170 24.015915 -0.912313 35.278975 93.172687 -39.569687 42.285578 4.904548 31.055538 -37.991647 -48.015004 43.639335 -57.468652 88.926379 -113.894764 174.919096 145.927907 -103.124682 141.393699 28.401854 15.136746 -68.235284 -90.246285
-8.284936 60.060309 -123.641413 -10.874337 14.723405 -23.536323 22.896100 17.944290 166.011245 33.723813 -14.686160 -124.913792 -29.147057 13.222323 65.142745 12.799189 245.381267 74.768961 -53.665773 319.554061 -24.640471 -23.840844 127.940003 -43.338329 -56.867445 -53.083332 -93.269867 207.833845 394.700622 170.674802 32.803947 200.251557 449.171763 -59.133510 2.196585 38.997669 -34.606219 -11.861379 19.171021 71.910144 -11.683942 20.939154 -2.244735 33.559691 94.444331 -39.747384 47.741950 3.609230 26.429576 -45.044633 -53.775418 36.560650 -47.810016 76.182052 -116.184919 172.711415 155.720527 -102.390737 136.006046 25.626130 5.314688 -73.426316 -107.028825
-10.823185 62.609695 -120.440844 -11.487805 8.025886 -19.917991 19.940809 22.277130 163.725836 30.609609 -13.991726 -125.633229 -27.171749 18.882606 62.379687 17.325762 248.086841 77.093527 -50.538793 325.632902 -23.530160 -25.052977 120.110174 -43.153402 -66.507423 -58.191627 -95.978822 206.435460 403.050747 175.687027 35.368246 205.467595 457.108826 -58.031862 -0.477163 37.006255 -34.732632 -11.752293 20.280773 67.601777 -6.732343 19.208411 -3.636395 32.029513 91.746782 -44.263905 52.983686 1.685303 23.736337 -32.538311 -47.579815 30.502457 -33.142533 62.533326 -117.348579 167.806328 168.888325 -100.458935 126.910871 23.260474 -138.981154 -82.497716 -250.415444
-13.203929 65.372905 -116.937445 -9.957143 -1.535849 -14.080435 15.545155 25.297436 161.655824 25.794274 -13.398125 -128.213606 -23.900492 21.698901 59.625304 22.111872 250.255563 79.215783 -49.885864 329.107256 -22.255116 -25.154849 114.202628 -42.165094 -66.734609 -52.204570 -99.693994 206.559933 411.377676 179.686813 40.300179 214.490780 464.675254 -57.117850 -2.358557 35.439461 -32.440093 -10.380944 21.904149 63.145891 -3.297605 19.091478 -3.913167 30.140235 86.436249 -45.800544 57.020093 -0.971801 30.784277 -41.665052 -56.229922 23.112190 -18.062287 52.290282 -120.076966 166.278278 185.205675 -96.663241 112.908600 18.525655 -52.930387 -81.493016 -175.688038
-15.466906 68.230795 -113.434790 -4.975195 -10.398143 -6.526069 9.756022 29.745976 160.074499 23.285950 -13.520045 -129.885404 -20.508529 23.699300 56.480600 27.582409 254.913807 79.845615 -53.623156 331.163306 -24.234566 -25.199618 112.950715 -43.636962 -75.376185 -53.361997 -99.500181 210.359021 423.540222 181.870958 49.800811 220.514351 473.443961 -58.582410 -8.729603 34.869550 -32.205708 -9.684832 24.701589 54.050050 -1.350121 16.760181 -1.534207 31.223062 78.686545 -50.322727 61.746761 -1.530870 21.414142 -34.874201 -51.071694 13.069689 -3.751603 44.429066 -119.520415 163.893026 200.584966 -86.371956 92.807497 13.004228 -171.869266 -80.587066 -279.132510
-17.654626 71.159209 -110.077208 5.210736 -18.925513 -2.097214 0.473099 37.572136 159.882899 23.882684 -11.078521 -125.507827 -16.458536 24.337841 52.737219 32.385984 249.052412 87.396997 -51.519116 326.495255 -18.476394 -25.334994 109.582660 -49.109941 -76.771497 -46.190244 -102.103815 214.517117 435.403960 181.983656 60.817159 224.017733 481.665268 -57.495576 -13.284610 33.362964 -29.592549 -7.111257 25.487206 42.192169 3.708374 15.371091 -0.610286 36.986632 75.324180 -50.757243 63.763183 -2.627814 32.401068 -37.952059 -56.162832 0.509136 3.248106 28.734111 -110.085622 144.570106 202.000195 -72.539266 77.330732 9.425846 -285.319842 -76.286601 -378.219594
